<svg width="525" height="494" viewBox="0 0 525 494" fill="none" xmlns="http://www.w3.org/2000/svg">
<path d="M10.4205 267.606C10.4205 267.606 13.4 359.956 90.4906 421.51C167.583 483.063 274.407 487.471 360.887 493.318C447.367 499.166 513.791 450.21 523.802 376.205C533.813 302.201 467.732 280.477 431.879 196.237C396.026 111.997 399.215 84.3053 323.355 32.4947C247.493 -19.3171 128.82 12.498 66.6005 101.259C4.37946 190.019 10.4205 267.606 10.4205 267.606Z" fill="#0D986A"/>
<path opacity="0.7" d="M10.4205 267.606C10.4205 267.606 13.4 359.956 90.4906 421.51C167.583 483.063 274.407 487.471 360.887 493.318C447.367 499.166 513.791 450.21 523.802 376.205C533.813 302.201 467.732 280.477 431.879 196.237C396.026 111.997 399.215 84.3053 323.355 32.4947C247.493 -19.3171 128.82 12.498 66.6005 101.259C4.37946 190.019 10.4205 267.606 10.4205 267.606Z" fill="white"/>
<path d="M506.436 286.323H0" stroke="#263238" stroke-width="1.0816" stroke-miterlimit="10"/>
<path d="M92.8931 138.74C92.8931 135.219 94.5147 132.631 98.1725 132.631C101.9 132.631 103.522 135.219 103.522 138.74V151.095C103.522 154.615 101.901 157.204 98.1725 157.204C94.5147 157.204 92.8931 154.615 92.8931 151.095V138.74ZM94.4814 151.198C94.4814 153.82 95.5168 155.753 98.1738 155.753C100.867 155.753 101.935 153.82 101.935 151.198V138.636C101.935 136.012 100.867 134.08 98.1738 134.08C95.5168 134.08 94.4814 136.012 94.4814 138.636V151.198Z" fill="#263238"/>
<path d="M106.045 138.74C106.045 135.219 107.667 132.631 111.324 132.631C115.051 132.631 116.674 135.219 116.674 138.74V151.095C116.674 154.615 115.053 157.204 111.324 157.204C107.667 157.204 106.045 154.615 106.045 151.095V138.74ZM107.633 151.198C107.633 153.82 108.669 155.753 111.326 155.753C114.019 155.753 115.087 153.82 115.087 151.198V138.636C115.087 136.012 114.019 134.08 111.326 134.08C108.669 134.08 107.633 136.012 107.633 138.636V151.198Z" fill="#263238"/>
<path d="M124.304 132.838C128.031 132.838 129.481 135.184 129.481 138.705V141.327C129.481 145.158 127.72 147.056 123.889 147.056H120.887V156.996H119.298V132.837H124.304V132.838ZM123.889 145.607C126.684 145.607 127.893 144.365 127.893 141.432V138.603C127.893 135.98 126.997 134.288 124.304 134.288H120.888V145.609L123.889 145.607Z" fill="#263238"/>
<path d="M142.047 138.67V139.188H140.527V138.566C140.527 136.012 139.561 134.078 136.939 134.078C134.316 134.078 133.35 135.976 133.35 138.531C133.35 144.398 142.081 144.502 142.081 151.163C142.081 154.648 140.562 157.203 136.87 157.203C133.177 157.203 131.659 154.65 131.659 151.163V149.921H133.178V151.267C133.178 153.855 134.178 155.72 136.836 155.72C139.493 155.72 140.494 153.856 140.494 151.267C140.494 145.469 131.763 145.365 131.763 138.636C131.763 135.011 133.351 132.665 136.905 132.631C140.563 132.631 142.047 135.184 142.047 138.67Z" fill="#263238"/>
<path d="M146.018 153.958V156.996H144.464V153.958H146.018Z" fill="#263238"/>
<path d="M150.334 153.958V156.996H148.78V153.958H150.334Z" fill="#263238"/>
<path d="M154.648 153.958V156.996H153.095V153.958H154.648Z" fill="#263238"/>
<path d="M36.2422 239.624L63.4382 175.307H79.7528V239.624H86.8254V253.22H79.7528V270.49H65.0688V253.219H36.2422V239.624ZM65.0688 239.624V203.863L49.9752 239.624H65.0688Z" fill="#263238"/>
<path d="M92.4004 198.151C92.4004 182.923 100.424 174.22 115.109 174.22C129.794 174.22 137.815 182.922 137.815 198.151V247.645C137.815 262.875 129.794 271.576 115.109 271.576C100.424 271.576 92.4004 262.875 92.4004 247.645V198.151ZM107.358 248.596C107.358 255.395 110.348 257.979 115.109 257.979C119.866 257.979 122.86 255.395 122.86 248.596V197.199C122.86 190.4 119.868 187.816 115.109 187.816C110.348 187.816 107.358 190.4 107.358 197.199V248.596Z" fill="#263238"/>
<path d="M143.934 239.624L171.13 175.307H187.445V239.624H194.517V253.22H187.445V270.49H172.76V253.219H143.934V239.624ZM172.76 239.624V203.863L157.667 239.624H172.76Z" fill="#263238"/>
<path d="M42.8016 293.343C46.4544 293.343 47.8738 295.643 47.8738 299.091V301.661C47.8738 305.415 46.1485 307.275 42.3959 307.275H39.4548V317.013H37.8984V293.343H42.8016ZM42.3959 305.855C45.1348 305.855 46.3187 304.638 46.3187 301.764V298.99C46.3187 296.42 45.4407 294.763 42.8029 294.763H39.456V305.854L42.3959 305.855Z" fill="#263238"/>
<path d="M52.0359 311.772L50.8533 317.013H49.4326L54.6059 293.309H56.8725L62.1469 317.013H60.5906L59.408 311.772H52.0359ZM52.2739 310.42H59.1725L55.6899 295.103L52.2739 310.42Z" fill="#263238"/>
<path d="M74.5949 299.126V300.884H73.1064V299.025C73.1064 296.488 72.126 294.56 69.5228 294.56C66.9195 294.56 65.9391 296.488 65.9391 299.025V311.333C65.9391 313.869 66.9195 315.763 69.5228 315.763C72.126 315.763 73.1064 313.869 73.1064 311.333V306.226H69.9618V304.807H74.5949V311.232C74.5949 314.647 73.1064 317.218 69.4882 317.218C65.8713 317.218 64.3828 314.648 64.3828 311.232V299.126C64.3828 295.711 65.8713 293.14 69.4882 293.14C73.1077 293.141 74.5949 295.711 74.5949 299.126Z" fill="#263238"/>
<path d="M85.2156 304.299V305.72H78.756V315.594H86.5325V317.015H77.1997V293.343H86.5325V294.764H78.756V304.3L85.2156 304.299Z" fill="#263238"/>
<path d="M95.7346 317.015H94.314V293.343H96.3438L103.445 313.328V293.343H104.865V317.015H103.14L95.7346 295.914V317.015Z" fill="#263238"/>
<path d="M107.438 299.126C107.438 295.676 109.028 293.14 112.611 293.14C116.264 293.14 117.852 295.676 117.852 299.126V311.232C117.852 314.681 116.263 317.218 112.611 317.218C109.026 317.218 107.438 314.681 107.438 311.232V299.126ZM108.994 311.333C108.994 313.903 110.009 315.796 112.613 315.796C115.25 315.796 116.299 313.902 116.299 311.333V299.025C116.299 296.455 115.252 294.56 112.613 294.56C110.009 294.56 108.994 296.455 108.994 299.025V311.333Z" fill="#263238"/>
<path d="M124.414 317.015V294.764H119.613V293.343H130.806V294.764H125.97V317.015H124.414Z" fill="#263238"/>
<path d="M145.655 304.875V306.296H139.536V317.015H137.979V293.343H146.974V294.764H139.536V304.875H145.655Z" fill="#263238"/>
<path d="M149.241 299.126C149.241 295.676 150.831 293.14 154.414 293.14C158.067 293.14 159.656 295.676 159.656 299.126V311.232C159.656 314.681 158.066 317.218 154.414 317.218C150.831 317.218 149.241 314.681 149.241 311.232V299.126ZM150.798 311.333C150.798 313.903 151.811 315.796 154.414 315.796C157.052 315.796 158.1 313.902 158.1 311.333V299.025C158.1 296.455 157.054 294.56 154.414 294.56C151.811 294.56 150.798 296.455 150.798 299.025V311.333Z" fill="#263238"/>
<path d="M163.718 311.3C163.718 313.837 164.666 315.797 167.269 315.797C169.873 315.797 170.82 313.837 170.82 311.3V293.343H172.275V311.232C172.275 314.613 170.856 317.218 167.236 317.218C163.618 317.218 162.163 314.613 162.163 311.232V293.343H163.719V311.3H163.718Z" fill="#263238"/>
<path d="M176.367 317.015H174.946V293.343H176.976L184.077 313.328V293.343H185.498V317.015H183.772L176.367 295.914V317.015Z" fill="#263238"/>
<path d="M193.379 293.343C197.031 293.343 198.62 295.744 198.62 299.228V311.131C198.62 314.613 197.03 317.015 193.379 317.015H188.171V293.343H193.379ZM193.344 315.594C195.982 315.594 197.065 313.802 197.065 311.197V299.159C197.065 296.554 195.95 294.763 193.344 294.763H189.726V315.593H193.344V315.594Z" fill="#263238"/>
<path d="M477.029 29.0442C477.029 29.0442 477.029 22.7306 468.189 13.8905C459.349 5.05038 453.666 0 453.666 0C453.666 0 449.247 14.5227 457.455 23.3628C465.663 32.2029 477.028 40.4107 477.028 40.4107L477.029 29.0442Z" fill="#0D986A"/>
<path d="M464.2 68.477C464.2 68.477 464.2 62.1634 455.36 53.3233C446.52 44.4832 440.837 39.4329 440.837 39.4329C440.837 39.4329 436.418 53.9556 444.626 62.7957C452.835 71.6358 464.2 79.8436 464.2 79.8436V68.477Z" fill="#0D986A"/>
<path d="M476.474 39.799C476.474 39.799 477.14 33.52 486.865 25.6641C496.589 17.8083 502.774 13.385 502.774 13.385C502.774 13.385 505.634 28.293 496.538 36.2167C487.441 44.1391 475.273 51.1016 475.273 51.1016L476.474 39.799Z" fill="#0D986A"/>
<path d="M460.975 86.3684C460.975 86.3684 462.298 80.1943 472.794 73.4033C483.29 66.6123 489.905 62.8635 489.905 62.8635C489.905 62.8635 491.183 77.9904 481.305 84.9132C471.427 91.836 458.594 97.4816 458.594 97.4816L460.975 86.3684Z" fill="#0D986A"/>
<path d="M463.889 137.144C463.889 137.144 463.889 130.83 472.729 121.99C481.569 113.15 487.252 108.098 487.252 108.098C487.252 108.098 491.671 122.621 483.463 131.461C475.255 140.301 463.889 148.509 463.889 148.509V137.144Z" fill="#0D986A"/>
<path d="M463.742 149.538C463.742 149.538 464.639 143.288 457.145 133.281C449.651 123.275 444.744 117.467 444.744 117.467C444.744 117.467 438.305 131.214 445.174 141.13C452.043 151.047 462.126 160.787 462.126 160.787L463.742 149.538Z" fill="#0D986A"/>
<path d="M455.024 186.266C455.024 186.266 455.024 179.953 463.865 171.113C472.705 162.273 478.387 157.221 478.387 157.221C478.387 157.221 482.807 171.744 474.599 180.584C466.391 189.424 455.024 197.632 455.024 197.632V186.266Z" fill="#0D986A"/>
<path d="M460.927 219.568C460.927 219.568 459.327 213.46 465.641 202.669C471.953 191.879 476.172 185.554 476.172 185.554C476.172 185.554 484.126 198.483 478.424 209.113C472.723 219.744 463.807 230.563 463.807 230.563L460.927 219.568Z" fill="#0D986A"/>
<path d="M477.831 27.4265C477.313 34.1753 476.546 41.1583 475.409 47.0316C471.915 65.0855 463.179 76.7337 459.684 93.0405C456.19 109.347 466.222 130.357 463.536 151.3C460.849 172.246 452.696 183.894 455.026 197.871C457.355 211.849 469.586 249.703 469.586 249.703" stroke="#263238" stroke-width="1.0816" stroke-miterlimit="10" stroke-linecap="round" stroke-linejoin="round"/>
<path d="M476.387 43.9945L485.913 36.6838" stroke="#263238" stroke-width="1.0816" stroke-miterlimit="10" stroke-linecap="round" stroke-linejoin="round"/>
<path d="M476.829 35.5768L472.841 28.4875" stroke="#263238" stroke-width="1.0816" stroke-miterlimit="10" stroke-linecap="round" stroke-linejoin="round"/>
<path d="M460.214 92.2916C460.214 92.2916 468.191 86.3095 476.387 80.3286" stroke="#263238" stroke-width="1.0816" stroke-miterlimit="10" stroke-linecap="round" stroke-linejoin="round"/>
<path d="M464.2 79.8424C464.2 79.8424 457.555 66.8133 450.023 58.1729" stroke="#263238" stroke-width="1.0816" stroke-miterlimit="10" stroke-linecap="round" stroke-linejoin="round"/>
<path d="M464.201 146.126C464.201 146.126 470.405 133.941 481.259 123.307" stroke="#263238" stroke-width="1.0816" stroke-miterlimit="10" stroke-linecap="round" stroke-linejoin="round"/>
<path d="M462.651 154.988C462.651 154.988 458.663 145.461 454.011 138.594C449.358 131.726 448.693 130.84 448.693 130.84" stroke="#263238" stroke-width="1.0816" stroke-miterlimit="10" stroke-linecap="round" stroke-linejoin="round"/>
<path d="M455.026 197.871C455.026 197.871 458.22 189.771 462.208 183.346C466.196 176.921 471.513 171.161 471.513 171.161" stroke="#263238" stroke-width="1.0816" stroke-miterlimit="10" stroke-linecap="round" stroke-linejoin="round"/>
<path d="M463.806 230.563C463.806 230.563 462.871 223.001 466.195 216.576C469.518 210.151 473.284 201.734 474.834 198.41" stroke="#263238" stroke-width="1.0816" stroke-miterlimit="10" stroke-linecap="round" stroke-linejoin="round"/>
<path d="M419.143 113.398C419.143 113.398 418.458 109.438 423.042 102.937C427.625 96.4335 430.64 92.6489 430.64 92.6489C430.64 92.6489 434.988 101.277 430.802 107.71C426.614 114.144 420.378 120.526 420.378 120.526L419.143 113.398Z" fill="#0D986A"/>
<path d="M431.468 136.733C431.468 136.733 430.784 132.773 435.367 126.27C439.95 119.767 442.965 115.982 442.965 115.982C442.965 115.982 447.313 124.609 443.125 131.044C438.938 137.478 432.702 143.859 432.702 143.859L431.468 136.733Z" fill="#0D986A"/>
<path d="M420.659 120.082C420.659 120.082 419.559 116.217 412.608 112.346C405.657 108.475 401.299 106.373 401.299 106.373C401.299 106.373 401.124 116.032 407.688 120.014C414.253 123.994 422.64 127.039 422.64 127.039L420.659 120.082Z" fill="#0D986A"/>
<path d="M435.433 147.602C435.433 147.602 433.933 143.873 426.615 140.754C419.296 137.635 414.742 136.002 414.742 136.002C414.742 136.002 415.581 145.627 422.527 148.896C429.473 152.164 438.134 154.312 438.134 154.312L435.433 147.602Z" fill="#0D986A"/>
<path d="M439.118 179.758C439.118 179.758 438.433 175.798 431.93 171.215C425.427 166.632 421.315 164.081 421.315 164.081C421.315 164.081 420.12 173.667 426.227 178.32C432.333 182.972 440.352 186.886 440.352 186.886L439.118 179.758Z" fill="#0D986A"/>
<path d="M440.557 187.514C440.557 187.514 439.315 183.693 442.928 176.605C446.541 169.517 448.987 165.342 448.987 165.342C448.987 165.342 454.518 173.263 451.287 180.227C448.057 187.191 442.79 194.394 442.79 194.394L440.557 187.514Z" fill="#0D986A"/>
<path d="M451.652 219.452C451.652 219.452 452.11 215.461 458.34 210.513C464.571 205.566 468.531 202.785 468.531 202.785C468.531 202.785 470.271 212.288 464.44 217.281C458.609 222.273 450.828 226.639 450.828 226.639L451.652 219.452Z" fill="#0D986A"/>
<path d="M450.01 209.6C450.01 209.6 449.325 205.64 442.822 201.057C436.319 196.474 432.208 193.923 432.208 193.923C432.208 193.923 431.013 203.509 437.12 208.161C443.227 212.814 451.245 216.728 451.245 216.728L450.01 209.6Z" fill="#0D986A"/>
<path d="M449.923 231.124C449.923 231.124 450.262 227.119 445.132 221.038C440.002 214.958 436.671 211.448 436.671 211.448C436.671 211.448 433.086 220.419 437.816 226.466C442.546 232.514 449.311 238.331 449.311 238.331L449.923 231.124Z" fill="#0D986A"/>
<path d="M418.465 112.47C419.522 116.647 420.761 120.942 422.111 124.501C426.262 135.443 433.005 141.799 436.967 151.645C440.928 161.491 436.918 175.755 440.877 188.597C444.835 201.44 451.213 207.858 451.269 216.877C451.326 225.895 447.766 250.962 447.766 250.962" stroke="#263238" stroke-width="1.0816" stroke-miterlimit="10" stroke-linecap="round" stroke-linejoin="round"/>
<path d="M421.169 122.703L414.401 119.152" stroke="#263238" stroke-width="1.0816" stroke-miterlimit="10" stroke-linecap="round" stroke-linejoin="round"/>
<path d="M419.978 117.472L421.708 112.593" stroke="#263238" stroke-width="1.0816" stroke-miterlimit="10" stroke-linecap="round" stroke-linejoin="round"/>
<path d="M436.553 151.234C436.553 151.234 430.903 148.349 425.113 145.487" stroke="#263238" stroke-width="1.0816" stroke-miterlimit="10" stroke-linecap="round" stroke-linejoin="round"/>
<path d="M432.702 143.861C432.702 143.861 435.455 134.969 439.24 128.732" stroke="#263238" stroke-width="1.0816" stroke-miterlimit="10" stroke-linecap="round" stroke-linejoin="round"/>
<path d="M439.897 185.426C439.897 185.426 434.685 178.458 426.722 172.969" stroke="#263238" stroke-width="1.0816" stroke-miterlimit="10" stroke-linecap="round" stroke-linejoin="round"/>
<path d="M441.832 190.814C441.832 190.814 443.298 184.407 445.47 179.596C447.642 174.784 447.962 174.156 447.962 174.156" stroke="#263238" stroke-width="1.0816" stroke-miterlimit="10" stroke-linecap="round" stroke-linejoin="round"/>
<path d="M450.962 223.717C450.962 223.717 455.447 218.219 458.24 216.162C461.031 214.105 462.965 212.052 462.965 212.052" stroke="#263238" stroke-width="1.0816" stroke-miterlimit="10" stroke-linecap="round" stroke-linejoin="round"/>
<path d="M451.269 216.877C451.269 216.877 448.387 212.144 445.189 208.548C441.99 204.953 438.031 201.917 438.031 201.917" stroke="#263238" stroke-width="1.0816" stroke-miterlimit="10" stroke-linecap="round" stroke-linejoin="round"/>
<path d="M449.311 238.331C449.311 238.331 449.075 233.487 446.294 229.819C443.513 226.151 440.237 221.281 438.904 219.365" stroke="#263238" stroke-width="1.0816" stroke-miterlimit="10" stroke-linecap="round" stroke-linejoin="round"/>
<path d="M478.076 294.057H439.163C437.134 294.057 435.49 292.413 435.49 290.384L429.707 246.589H487.533L481.751 290.384C481.749 292.413 480.105 294.057 478.076 294.057Z" fill="#263238"/>
<path d="M487.029 254.132H429.706C427.206 254.132 425.18 252.106 425.18 249.606C425.18 247.106 427.206 245.08 429.706 245.08H487.029C489.529 245.08 491.555 247.106 491.555 249.606C491.555 252.106 489.529 254.132 487.029 254.132Z" fill="#263238"/>
<path d="M431.799 345.369C430.916 345.369 430.017 345.174 429.17 344.762C426.168 343.307 424.913 339.694 426.369 336.694C426.989 335.34 429.829 328.08 422.313 323.269C413.277 317.488 392.268 316.563 384.907 316.672C384.874 316.673 384.838 316.673 384.802 316.673C381.515 316.673 378.821 314.038 378.764 310.738C378.706 307.404 381.36 304.655 384.695 304.596C387.775 304.535 415.101 304.314 428.823 313.097C442.35 321.754 440.242 335.763 437.238 341.963C436.195 344.116 434.04 345.369 431.799 345.369Z" fill="#263238"/>
<path d="M459.647 377.245L458.321 381.753L438.168 348.608L437.638 341.449L459.647 377.245Z" fill="white" stroke="#263238" stroke-width="1.0816" stroke-miterlimit="10" stroke-linecap="round" stroke-linejoin="round"/>
<path d="M458.321 381.753L464.614 378.651L465.745 374.329L459.647 377.245L458.321 381.753Z" fill="white" stroke="#263238" stroke-width="1.0816" stroke-miterlimit="10" stroke-linecap="round" stroke-linejoin="round"/>
<path d="M434.986 337.737L458.321 336.941L465.745 374.329L459.647 377.245L434.986 337.737Z" fill="white" stroke="#263238" stroke-width="1.0816" stroke-miterlimit="10" stroke-linecap="round" stroke-linejoin="round"/>
<path d="M431.804 339.328L455.139 378.571L447.45 382.284L412.979 354.177L431.804 339.328Z" fill="white" stroke="#263238" stroke-width="1.0816" stroke-miterlimit="10" stroke-linecap="round" stroke-linejoin="round"/>
<path d="M447.449 382.284L446.388 386.261L411.653 358.685L412.979 354.177L447.449 382.284Z" fill="white" stroke="#263238" stroke-width="1.0816" stroke-miterlimit="10" stroke-linecap="round" stroke-linejoin="round"/>
<path d="M447.449 382.284L455.139 378.571L454.078 382.549L446.388 386.261L447.449 382.284Z" fill="white" stroke="#263238" stroke-width="1.0816" stroke-miterlimit="10" stroke-linecap="round" stroke-linejoin="round"/>
<path d="M424.561 345.108C424.561 351.64 429.856 356.935 436.389 356.935C442.921 356.935 448.216 351.64 448.216 345.108C448.216 338.575 442.921 333.281 436.389 333.281C429.856 333.281 424.561 338.577 424.561 345.108Z" fill="#0D986A" stroke="#263238" stroke-width="1.0816" stroke-miterlimit="10" stroke-linecap="round" stroke-linejoin="round"/>
<path d="M187.155 377.245L188.481 381.753L208.634 348.608L209.163 341.448L187.155 377.245Z" fill="white" stroke="#263238" stroke-width="1.0816" stroke-miterlimit="10" stroke-linecap="round" stroke-linejoin="round"/>
<path d="M188.481 381.753L182.189 378.651L181.056 374.328L187.155 377.245L188.481 381.753Z" fill="white" stroke="#263238" stroke-width="1.0816" stroke-miterlimit="10" stroke-linecap="round" stroke-linejoin="round"/>
<path d="M211.815 337.737L188.481 336.941L181.056 374.328L187.155 377.245L211.815 337.737Z" fill="white" stroke="#263238" stroke-width="1.0816" stroke-miterlimit="10" stroke-linecap="round" stroke-linejoin="round"/>
<path d="M214.997 339.328L191.663 378.571L199.353 382.284L233.824 354.177L214.997 339.328Z" fill="white" stroke="#263238" stroke-width="1.0816" stroke-miterlimit="10" stroke-linecap="round" stroke-linejoin="round"/>
<path d="M199.354 382.284L200.413 386.261L235.15 358.684L233.824 354.177L199.354 382.284Z" fill="white" stroke="#263238" stroke-width="1.0816" stroke-miterlimit="10" stroke-linecap="round" stroke-linejoin="round"/>
<path d="M199.353 382.284L191.663 378.571L192.724 382.549L200.413 386.261L199.353 382.284Z" fill="white" stroke="#263238" stroke-width="1.0816" stroke-miterlimit="10" stroke-linecap="round" stroke-linejoin="round"/>
<path d="M211.171 349.386C209.417 349.386 207.677 348.625 206.483 347.158C204.378 344.571 204.768 340.768 207.356 338.662C255.377 299.586 245.591 241.316 245.486 240.733C244.899 237.45 247.085 234.312 250.368 233.724C253.648 233.133 256.789 235.323 257.376 238.606C257.854 241.275 268.46 304.511 214.98 348.031C213.859 348.942 212.511 349.386 211.171 349.386Z" fill="#263238"/>
<path d="M257.974 247.722C271.038 247.722 281.629 237.132 281.629 224.067C281.629 211.003 271.038 200.413 257.974 200.413C244.91 200.413 234.319 211.003 234.319 224.067C234.319 237.132 244.91 247.722 257.974 247.722Z" fill="#ADADAD" stroke="#263238" stroke-width="1.0816" stroke-miterlimit="10" stroke-linecap="round" stroke-linejoin="round"/>
<path d="M222.24 345.108C222.24 351.64 216.945 356.935 210.413 356.935C203.88 356.935 198.585 351.64 198.585 345.108C198.585 338.575 203.88 333.28 210.413 333.28C216.945 333.28 222.24 338.577 222.24 345.108Z" fill="#0D986A" stroke="#263238" stroke-width="1.0816" stroke-miterlimit="10" stroke-linecap="round" stroke-linejoin="round"/>
<path d="M321.316 321.475C342.049 321.475 358.856 305.8 358.856 286.464C358.856 267.128 342.049 251.453 321.316 251.453C300.584 251.453 283.776 267.128 283.776 286.464C283.776 305.8 300.584 321.475 321.316 321.475Z" fill="#ADADAD" stroke="#263238" stroke-width="1.0816" stroke-miterlimit="10" stroke-linecap="round" stroke-linejoin="round"/>
<path d="M301.751 271.507L305.262 285.192C307.394 292.181 314.244 296.624 321.494 295.721C328.74 294.819 334.289 288.841 334.649 281.548L335.331 267.746L301.751 271.507Z" fill="#263238" stroke="#263238" stroke-width="1.0816" stroke-miterlimit="10" stroke-linecap="round" stroke-linejoin="round"/>
<path d="M375.755 202.668C369.673 202.668 365.636 201.351 365.289 201.233L366.255 198.372C366.423 198.427 383.234 203.844 400.344 191.33L402.128 193.767C392.307 200.949 382.698 202.668 375.755 202.668Z" fill="#263238"/>
<path d="M394.616 225.37C380.778 205.128 365.023 206.661 364.869 206.675L364.53 203.675C365.248 203.592 382.264 201.947 397.108 223.666L394.616 225.37Z" fill="#263238"/>
<path d="M391.121 239.663C373.207 234.152 362.427 210.295 361.977 209.281L364.737 208.055C364.842 208.291 375.417 231.673 392.009 236.778L391.121 239.663Z" fill="#263238"/>
<path d="M400.429 193.354L405.265 190.132" stroke="#263238" stroke-width="1.0816" stroke-miterlimit="10"/>
<path d="M394.519 221.832L397.743 228.28" stroke="#263238" stroke-width="1.0816" stroke-miterlimit="10"/>
<path d="M388.877 237.145C388.877 237.145 392.907 238.22 396.668 238.22" stroke="#263238" stroke-width="1.0816" stroke-miterlimit="10"/>
<path d="M253.02 198.223L257.482 229.461L368.638 218.101L368.232 185.647L253.02 198.223Z" fill="white" stroke="#263238" stroke-width="1.0816" stroke-miterlimit="10" stroke-linecap="round" stroke-linejoin="round"/>
<path d="M257.482 229.461L277.36 279.764L362.958 271.245L368.638 218.101L257.482 229.461Z" fill="#E5E5E5" stroke="#263238" stroke-width="1.0816" stroke-miterlimit="10" stroke-linecap="round" stroke-linejoin="round"/>
<path d="M284.301 242.646L292.107 265.693C293.242 269.136 296.649 271.3 300.248 270.861L334.53 267.12C338.095 266.686 340.871 263.815 341.186 260.237L343.317 236.002C343.614 232.62 340.74 229.81 337.363 230.188L288.81 235.618C285.417 236 283.234 239.404 284.301 242.646Z" fill="#263238"/>
<mask id="mask0_517_1287" style="mask-type:luminance" maskUnits="userSpaceOnUse" x="284" y="230" width="60" height="41">
<path d="M284.301 242.646L292.107 265.693C293.242 269.136 296.649 271.3 300.248 270.861L334.53 267.12C338.095 266.686 340.871 263.815 341.186 260.237L343.317 236.002C343.614 232.62 340.74 229.81 337.363 230.188L288.81 235.618C285.417 236 283.234 239.404 284.301 242.646Z" fill="white"/>
</mask>
<g mask="url(#mask0_517_1287)">
<path d="M284.292 255.264L298.456 254.009L302.938 241.818L313.515 260.822L318.895 246.658L321.584 251.141L347.222 248.093" stroke="white" stroke-width="1.0816" stroke-miterlimit="10" stroke-linecap="round" stroke-linejoin="round"/>
</g>
<path d="M284.301 242.646L292.107 265.693C293.242 269.136 296.649 271.3 300.248 270.861L334.53 267.12C338.095 266.686 340.871 263.815 341.186 260.237L343.317 236.002C343.614 232.62 340.74 229.81 337.363 230.188L288.81 235.618C285.417 236 283.234 239.404 284.301 242.646Z" stroke="#263238" stroke-width="1.0816" stroke-miterlimit="10" stroke-linecap="round" stroke-linejoin="round"/>
<path d="M355.744 239.004C359.181 239.004 361.968 236.217 361.968 232.78C361.968 229.342 359.181 226.556 355.744 226.556C352.306 226.556 349.52 229.342 349.52 232.78C349.52 236.217 352.306 239.004 355.744 239.004Z" fill="white" stroke="#263238" stroke-width="1.0816" stroke-miterlimit="10" stroke-linecap="round" stroke-linejoin="round"/>
<path d="M360.801 252.231C360.801 255.454 358.189 258.066 354.967 258.066C351.744 258.066 349.132 255.454 349.132 252.231C349.132 249.008 351.744 246.396 354.967 246.396C358.188 246.395 360.801 249.008 360.801 252.231Z" fill="#0D986A" stroke="#263238" stroke-width="1.0816" stroke-miterlimit="10" stroke-linecap="round" stroke-linejoin="round"/>
<path d="M280.01 239.542C281.002 242.834 279.138 246.307 275.846 247.298C272.554 248.29 269.082 246.427 268.09 243.135C267.098 239.843 268.962 236.371 272.254 235.379C275.545 234.387 279.018 236.251 280.01 239.542Z" fill="#0D986A" stroke="#263238" stroke-width="1.0816" stroke-miterlimit="10" stroke-linecap="round" stroke-linejoin="round"/>
<path d="M284.506 258.501C285.436 261.587 283.689 264.842 280.604 265.772C277.518 266.703 274.263 264.954 273.333 261.87C272.402 258.784 274.149 255.529 277.235 254.599C280.321 253.668 283.575 255.417 284.506 258.501Z" fill="white" stroke="#263238" stroke-width="1.0816" stroke-miterlimit="10" stroke-linecap="round" stroke-linejoin="round"/>
<path d="M298.752 327.311C307.883 327.311 315.285 320.17 315.285 311.361C315.285 302.552 307.883 295.411 298.752 295.411C289.621 295.411 282.219 302.552 282.219 311.361C282.219 320.17 289.621 327.311 298.752 327.311Z" fill="#0D986A" stroke="#263238" stroke-width="1.0816" stroke-miterlimit="10" stroke-linecap="round" stroke-linejoin="round"/>
<path d="M274.439 347.15L289.585 313.154C290.931 310.134 294.324 308.597 297.481 309.577C300.727 310.584 302.657 313.915 301.916 317.231L291.944 361.932L274.439 347.15Z" fill="#263238" stroke="#263238" stroke-width="1.0816" stroke-miterlimit="10" stroke-linecap="round" stroke-linejoin="round"/>
<path d="M269.381 295.022L302.448 372.826L262.768 378.272C262.768 378.272 239.038 354.153 223.088 308.249L269.381 295.022Z" fill="#ADADAD" stroke="#263238" stroke-width="1.0816" stroke-miterlimit="10" stroke-linecap="round" stroke-linejoin="round"/>
<path d="M269.381 295.022L270.938 287.631L304.004 366.991L302.448 372.826L269.381 295.022Z" fill="white" stroke="#263238" stroke-width="1.0816" stroke-miterlimit="10" stroke-linecap="round" stroke-linejoin="round"/>
<path d="M270.938 287.631L225.812 301.246L223.088 308.249L269.381 295.022L270.938 287.631Z" fill="white" stroke="#263238" stroke-width="1.0816" stroke-miterlimit="10" stroke-linecap="round" stroke-linejoin="round"/>
<path d="M226.201 315.64L271.716 301.635" stroke="#263238" stroke-width="1.0816" stroke-miterlimit="10" stroke-linecap="round" stroke-linejoin="round"/>
<path d="M229.702 323.809L275.606 311.361" stroke="#263238" stroke-width="1.0816" stroke-miterlimit="10" stroke-linecap="round" stroke-linejoin="round"/>
<path d="M233.203 332.369L279.496 319.92" stroke="#263238" stroke-width="1.0816" stroke-miterlimit="10" stroke-linecap="round" stroke-linejoin="round"/>
<path d="M238.26 342.872L283.386 329.646" stroke="#263238" stroke-width="1.0816" stroke-miterlimit="10" stroke-linecap="round" stroke-linejoin="round"/>
<path d="M243.051 351.218L288.055 339.371" stroke="#263238" stroke-width="1.0816" stroke-miterlimit="10" stroke-linecap="round" stroke-linejoin="round"/>
<path d="M247.99 358.851L291.944 348.318" stroke="#263238" stroke-width="1.0816" stroke-miterlimit="10" stroke-linecap="round" stroke-linejoin="round"/>
<path d="M253.677 366.185L294.668 356.487" stroke="#263238" stroke-width="1.0816" stroke-miterlimit="10" stroke-linecap="round" stroke-linejoin="round"/>
<path d="M257.719 372.172L298.431 365.437" stroke="#263238" stroke-width="1.0816" stroke-miterlimit="10" stroke-linecap="round" stroke-linejoin="round"/>
<path d="M342.795 327.311C351.926 327.311 359.329 320.17 359.329 311.361C359.329 302.552 351.926 295.411 342.795 295.411C333.664 295.411 326.262 302.552 326.262 311.361C326.262 320.17 333.664 327.311 342.795 327.311Z" fill="#0D986A" stroke="#263238" stroke-width="1.0816" stroke-miterlimit="10" stroke-linecap="round" stroke-linejoin="round"/>
<path d="M367.109 347.15L351.963 313.156C350.618 310.135 347.225 308.598 344.067 309.578C340.822 310.586 338.892 313.916 339.633 317.232L349.604 361.933L367.109 347.15Z" fill="#263238" stroke="#263238" stroke-width="1.0816" stroke-miterlimit="10" stroke-linecap="round" stroke-linejoin="round"/>
<path d="M372.167 295.022L339.1 372.826L378.78 378.272C378.78 378.272 402.51 354.153 418.46 308.249L372.167 295.022Z" fill="#ADADAD" stroke="#263238" stroke-width="1.0816" stroke-miterlimit="10" stroke-linecap="round" stroke-linejoin="round"/>
<path d="M372.167 295.022L370.611 287.631L337.544 366.991L339.1 372.826L372.167 295.022Z" fill="white" stroke="#263238" stroke-width="1.0816" stroke-miterlimit="10" stroke-linecap="round" stroke-linejoin="round"/>
<path d="M370.611 287.631L415.736 301.246L418.46 308.249L372.167 295.022L370.611 287.631Z" fill="white" stroke="#263238" stroke-width="1.0816" stroke-miterlimit="10" stroke-linecap="round" stroke-linejoin="round"/>
<path d="M415.348 315.64L369.833 301.635" stroke="#263238" stroke-width="1.0816" stroke-miterlimit="10" stroke-linecap="round" stroke-linejoin="round"/>
<path d="M411.847 323.809L365.942 311.361" stroke="#263238" stroke-width="1.0816" stroke-miterlimit="10" stroke-linecap="round" stroke-linejoin="round"/>
<path d="M408.345 332.369L362.052 319.92" stroke="#263238" stroke-width="1.0816" stroke-miterlimit="10" stroke-linecap="round" stroke-linejoin="round"/>
<path d="M403.288 342.872L358.161 329.646" stroke="#263238" stroke-width="1.0816" stroke-miterlimit="10" stroke-linecap="round" stroke-linejoin="round"/>
<path d="M398.498 351.218L353.494 339.371" stroke="#263238" stroke-width="1.0816" stroke-miterlimit="10" stroke-linecap="round" stroke-linejoin="round"/>
<path d="M393.559 358.851L349.603 348.318" stroke="#263238" stroke-width="1.0816" stroke-miterlimit="10" stroke-linecap="round" stroke-linejoin="round"/>
<path d="M387.871 366.185L346.881 356.487" stroke="#263238" stroke-width="1.0816" stroke-miterlimit="10" stroke-linecap="round" stroke-linejoin="round"/>
<path d="M383.829 372.172L343.118 365.437" stroke="#263238" stroke-width="1.0816" stroke-miterlimit="10" stroke-linecap="round" stroke-linejoin="round"/>
<path d="M402.311 228.548L406.608 230.428" stroke="#263238" stroke-width="1.0816" stroke-miterlimit="10"/>
<path d="M399.623 230.16L403.922 236.876" stroke="#263238" stroke-width="1.0816" stroke-miterlimit="10"/>
<path d="M397.205 230.428L396.4 234.728" stroke="#263238" stroke-width="1.0816" stroke-miterlimit="10"/>
<path d="M407.684 202.489H418.161" stroke="#263238" stroke-width="1.0816" stroke-miterlimit="10"/>
<path d="M399.623 203.026L414.668 207.325" stroke="#263238" stroke-width="1.0816" stroke-miterlimit="10"/>
<path d="M405.265 197.385L414.937 196.042" stroke="#263238" stroke-width="1.0816" stroke-miterlimit="10"/>
<path d="M370.609 230.697L373.296 238.489" stroke="#263238" stroke-width="1.0816" stroke-miterlimit="10"/>
<path d="M374.101 230.16L381.624 242.518" stroke="#263238" stroke-width="1.0816" stroke-miterlimit="10"/>
<path d="M376.787 222.907L384.042 225.324" stroke="#263238" stroke-width="1.0816" stroke-miterlimit="10"/>
<path d="M416.817 218.878L414.39 221.513L416.147 224.636L412.89 223.142L410.462 225.777L410.877 222.218L407.62 220.725L411.133 220.019L411.548 216.46L413.305 219.583L416.817 218.878Z" fill="#0D986A" stroke="#263238" stroke-width="0.5408" stroke-miterlimit="10" stroke-linecap="round" stroke-linejoin="round"/>
<path d="M420.578 183.415L418.151 186.05L419.907 189.173L416.651 187.679L414.223 190.315L414.638 186.757L411.381 185.262L414.894 184.557L415.309 180.997L417.065 184.12L420.578 183.415Z" fill="#0D986A" stroke="#263238" stroke-width="0.5408" stroke-miterlimit="10" stroke-linecap="round" stroke-linejoin="round"/>
<path d="M381.355 245.473L378.927 248.11L380.685 251.233L377.427 249.738L375.001 252.374L375.415 248.815L372.158 247.322L375.671 246.615L376.086 243.057L377.842 246.18L381.355 245.473Z" fill="#0D986A" stroke="#263238" stroke-width="0.5408" stroke-miterlimit="10" stroke-linecap="round" stroke-linejoin="round"/>
<path d="M265.393 186.864C275.364 186.864 283.446 178.872 283.446 169.014C283.446 159.155 275.364 151.163 265.393 151.163C255.423 151.163 247.341 159.155 247.341 169.014C247.341 178.872 255.423 186.864 265.393 186.864Z" fill="#ADADAD" stroke="#263238" stroke-width="1.0816" stroke-miterlimit="10" stroke-linecap="round" stroke-linejoin="round"/>
<path d="M344.094 181.997C354.064 181.997 362.147 174.005 362.147 164.146C362.147 154.288 354.064 146.296 344.094 146.296C334.124 146.296 326.042 154.288 326.042 164.146C326.042 174.005 334.124 181.997 344.094 181.997Z" fill="#ADADAD" stroke="#263238" stroke-width="1.0816" stroke-miterlimit="10" stroke-linecap="round" stroke-linejoin="round"/>
<path d="M307.787 223.375C320.334 223.375 330.505 213.658 330.505 201.671C330.505 189.684 320.334 179.967 307.787 179.967C295.24 179.967 285.069 189.684 285.069 201.671C285.069 213.658 295.24 223.375 307.787 223.375Z" fill="#0D986A" stroke="#263238" stroke-width="1.0816" stroke-miterlimit="10" stroke-linecap="round" stroke-linejoin="round"/>
<path d="M291.154 190.516L294.288 204.292C296.228 211.337 302.954 215.966 310.226 215.262C317.493 214.559 323.204 208.735 323.765 201.455L324.824 187.677L291.154 190.516Z" fill="#263238" stroke="#263238" stroke-width="1.0816" stroke-miterlimit="10" stroke-linecap="round" stroke-linejoin="round"/>
<path d="M270.464 132.503L261.944 166.579L346.732 159.684L334.156 127.229L270.464 132.503Z" fill="white" stroke="#263238" stroke-width="1.0816" stroke-miterlimit="10" stroke-linecap="round" stroke-linejoin="round"/>
<path d="M261.944 166.58L276.955 203.903L343.486 197.412L346.732 159.684L261.944 166.58Z" fill="#E5E5E5" stroke="#263238" stroke-width="1.0816" stroke-miterlimit="10" stroke-linecap="round" stroke-linejoin="round"/>
<path d="M300.072 181.802C299.85 187.101 295.22 191.277 289.675 191.696C284.099 192.117 278.699 188.655 277.518 183.396C276.169 177.388 280.725 171.479 287.828 171.021C294.879 170.566 300.324 175.76 300.072 181.802Z" fill="#0D986A" stroke="#263238" stroke-width="1.0816" stroke-miterlimit="10" stroke-linecap="round" stroke-linejoin="round"/>
<path d="M295.835 182.102C295.861 185.465 292.979 188.217 289.387 188.482C285.783 188.748 282.415 186.439 281.836 183.091C281.208 179.456 284.066 176.044 288.251 175.763C292.419 175.484 295.808 178.453 295.835 182.102Z" fill="white" stroke="#263238" stroke-width="1.0816" stroke-miterlimit="10" stroke-linecap="round" stroke-linejoin="round"/>
<path d="M337.799 178.151C337.577 183.449 332.947 187.626 327.402 188.044C321.826 188.465 316.426 185.003 315.246 179.744C313.897 173.737 318.453 167.827 325.557 167.369C332.607 166.916 338.052 172.109 337.799 178.151Z" fill="#0D986A" stroke="#263238" stroke-width="1.0816" stroke-miterlimit="10" stroke-linecap="round" stroke-linejoin="round"/>
<path d="M333.563 178.45C333.589 181.814 330.706 184.565 327.115 184.832C323.511 185.098 320.142 182.789 319.564 179.441C318.935 175.806 321.793 172.394 325.98 172.112C330.147 171.832 333.536 174.801 333.563 178.45Z" fill="white" stroke="#263238" stroke-width="1.0816" stroke-miterlimit="10" stroke-linecap="round" stroke-linejoin="round"/>
<path d="M300.481 197.186C298.948 197.186 297.636 196.024 297.48 194.468C297.313 192.808 298.526 191.328 300.184 191.162L316.41 189.539C318.072 189.363 319.55 190.584 319.716 192.244C319.883 193.902 318.671 195.383 317.012 195.549L300.786 197.172C300.683 197.181 300.581 197.186 300.481 197.186Z" fill="#263238" stroke="#263238" stroke-width="1.0816" stroke-miterlimit="10" stroke-linecap="round" stroke-linejoin="round"/>
<path d="M278.154 143.139C278.154 146.525 275.409 149.27 272.023 149.27C268.636 149.27 265.891 146.525 265.891 143.139C265.891 139.752 268.636 137.007 272.023 137.007C275.409 137.007 278.154 139.752 278.154 143.139Z" fill="#0D986A" stroke="#263238" stroke-width="1.0816" stroke-miterlimit="10" stroke-linecap="round" stroke-linejoin="round"/>
<path d="M273.472 139.57C273.472 142.464 271.126 144.81 268.232 144.81C265.339 144.81 262.993 142.464 262.993 139.57C262.993 136.676 265.339 134.33 268.232 134.33C271.126 134.33 273.472 136.676 273.472 139.57Z" fill="#0D986A" stroke="#263238" stroke-width="1.0816" stroke-miterlimit="10" stroke-linecap="round" stroke-linejoin="round"/>
<path d="M267.229 133.995C267.229 136.273 265.382 138.12 263.104 138.12C260.826 138.12 258.979 136.273 258.979 133.995C258.979 131.717 260.826 129.87 263.104 129.87C265.381 129.87 267.229 131.717 267.229 133.995Z" fill="#0D986A" stroke="#263238" stroke-width="1.0816" stroke-miterlimit="10" stroke-linecap="round" stroke-linejoin="round"/>
<path d="M262.099 132.546L252.734 123.85" stroke="#263238" stroke-width="1.0816" stroke-miterlimit="10" stroke-linecap="round" stroke-linejoin="round"/>
<path d="M326.097 138.901C326.097 142.287 328.842 145.033 332.229 145.033C335.615 145.033 338.36 142.287 338.36 138.901C338.36 135.514 335.615 132.769 332.229 132.769C328.842 132.769 326.097 135.514 326.097 138.901Z" fill="#0D986A" stroke="#263238" stroke-width="1.0816" stroke-miterlimit="10" stroke-linecap="round" stroke-linejoin="round"/>
<path d="M330.778 135.334C330.778 138.228 333.124 140.574 336.018 140.574C338.912 140.574 341.258 138.228 341.258 135.334C341.258 132.44 338.912 130.094 336.018 130.094C333.126 130.094 330.778 132.44 330.778 135.334Z" fill="#0D986A" stroke="#263238" stroke-width="1.0816" stroke-miterlimit="10" stroke-linecap="round" stroke-linejoin="round"/>
<path d="M337.023 129.759C337.023 132.037 338.87 133.884 341.148 133.884C343.426 133.884 345.273 132.037 345.273 129.759C345.273 127.481 343.426 125.634 341.148 125.634C338.87 125.634 337.023 127.481 337.023 129.759Z" fill="#0D986A" stroke="#263238" stroke-width="1.0816" stroke-miterlimit="10" stroke-linecap="round" stroke-linejoin="round"/>
<path d="M342.151 128.31L351.516 119.613" stroke="#263238" stroke-width="1.0816" stroke-miterlimit="10" stroke-linecap="round" stroke-linejoin="round"/>
<path d="M328.421 353.42C328.421 356.373 326.465 358.766 324.053 358.766C321.64 358.766 319.685 356.373 319.685 353.42C319.685 350.468 321.64 348.074 324.053 348.074C326.465 348.074 328.421 350.468 328.421 353.42Z" fill="white" stroke="#263238" stroke-width="1.0816" stroke-miterlimit="10" stroke-linecap="round" stroke-linejoin="round"/>
<path d="M337.076 357.894C336.967 357.894 336.856 357.886 336.744 357.871L324.601 356.094C323.363 355.912 322.507 354.763 322.687 353.525C322.869 352.288 324.02 351.434 325.256 351.612L337.399 353.389C338.638 353.57 339.495 354.72 339.313 355.957C339.148 357.084 338.181 357.894 337.076 357.894Z" fill="white" stroke="#263238" stroke-width="1.0816" stroke-miterlimit="10"/>
<path d="M167.322 378.429C165.74 375.936 166.108 372.868 168.146 371.576C170.184 370.283 173.117 371.257 174.698 373.75C176.28 376.243 175.91 379.311 173.873 380.604C171.837 381.897 168.904 380.923 167.322 378.429Z" fill="white" stroke="#263238" stroke-width="1.0816" stroke-miterlimit="10" stroke-linecap="round" stroke-linejoin="round"/>
<path d="M157.618 379.289C157.71 379.23 157.807 379.178 157.91 379.132L169.115 374.126C170.257 373.617 171.597 374.129 172.106 375.271C172.615 376.412 172.101 377.75 170.962 378.263L159.756 383.268C158.614 383.779 157.274 383.267 156.764 382.126C156.302 381.085 156.684 379.882 157.618 379.289Z" fill="white" stroke="#263238" stroke-width="1.0816" stroke-miterlimit="10"/>
<path d="M457.382 321.092C455.8 318.599 456.17 315.531 458.207 314.238C460.244 312.946 463.178 313.92 464.758 316.413C466.34 318.906 465.972 321.974 463.934 323.267C461.898 324.558 458.964 323.585 457.382 321.092Z" fill="white" stroke="#263238" stroke-width="1.0816" stroke-miterlimit="10" stroke-linecap="round" stroke-linejoin="round"/>
<path d="M447.678 321.951C447.771 321.892 447.868 321.84 447.97 321.793L459.175 316.788C460.317 316.279 461.657 316.79 462.167 317.932C462.676 319.074 462.161 320.411 461.022 320.924L449.817 325.93C448.674 326.441 447.334 325.929 446.825 324.787C446.363 323.747 446.744 322.544 447.678 321.951Z" fill="white" stroke="#263238" stroke-width="1.0816" stroke-miterlimit="10"/>
<path d="M240.925 380.841C235.817 380.841 231.677 383.292 231.677 386.315C231.677 389.338 235.817 391.787 240.925 391.787C246.033 391.787 250.173 389.336 250.173 386.315C250.173 383.292 246.033 380.841 240.925 380.841ZM240.925 389.146C238.283 389.146 236.142 387.879 236.142 386.315C236.142 384.751 238.283 383.484 240.925 383.484C243.567 383.484 245.708 384.751 245.708 386.315C245.708 387.879 243.567 389.146 240.925 389.146Z" fill="white" stroke="#263238" stroke-width="1.0816" stroke-miterlimit="10"/>
<path d="M324.222 381.716L317.901 379.209L311.581 381.716L310.02 387.35L314.393 391.868H321.408L325.782 387.35L324.222 381.716ZM319.682 388.915H316.12L313.899 386.62L314.692 383.759L317.9 382.485L321.11 383.759L321.902 386.62L319.682 388.915Z" fill="white" stroke="#263238" stroke-width="1.0816" stroke-miterlimit="10" stroke-linecap="round" stroke-linejoin="round"/>
<path d="M443.96 299.952L437.64 297.445L431.32 299.952L429.759 305.588L434.132 310.106H441.147L445.52 305.588L443.96 299.952ZM439.422 307.152H435.86L433.639 304.857L434.432 301.995L437.642 300.722L440.851 301.995L441.644 304.857L439.422 307.152Z" fill="white" stroke="#263238" stroke-width="1.0816" stroke-miterlimit="10" stroke-linecap="round" stroke-linejoin="round"/>
<path d="M366.464 394.57C366.291 394.57 366.114 394.54 365.943 394.475C365.733 394.397 364.651 393.943 363.859 392.704C363.163 391.615 362.569 389.684 363.694 386.682C364.549 384.404 366.301 382.806 368.627 382.184C371.396 381.446 374.677 382.195 376.985 384.098C377.63 384.628 377.721 385.58 377.19 386.222C376.662 386.865 375.711 386.957 375.066 386.427C373.507 385.146 371.231 384.611 369.409 385.1C368.447 385.358 367.167 386.024 366.522 387.743C365.391 390.757 366.754 391.535 367.038 391.661C367.786 391.99 368.157 392.864 367.85 393.62C367.612 394.209 367.057 394.57 366.464 394.57Z" fill="white" stroke="#263238" stroke-width="1.0816" stroke-miterlimit="10" stroke-linecap="round" stroke-linejoin="round"/>
<path d="M397.668 400.128C397.204 400.128 396.73 400.057 396.264 399.904L371.7 391.911C369.322 391.137 368.021 388.582 368.794 386.202C369.569 383.825 372.125 382.521 374.504 383.297L399.069 391.289C401.447 392.064 402.747 394.618 401.974 396.999C401.352 398.911 399.577 400.128 397.668 400.128Z" fill="white" stroke="#263238" stroke-width="1.0816" stroke-miterlimit="10" stroke-linecap="round" stroke-linejoin="round"/>
<path d="M370.958 391.698C370.958 391.698 371.933 385.458 379.731 385.264" stroke="#263238" stroke-width="1.0816" stroke-miterlimit="10" stroke-linecap="round" stroke-linejoin="round"/>
<path d="M376.221 393.063C376.221 393.063 377.197 386.825 384.995 386.629" stroke="#263238" stroke-width="1.0816" stroke-miterlimit="10" stroke-linecap="round" stroke-linejoin="round"/>
<path d="M380.901 394.817C380.901 394.817 381.876 388.579 389.674 388.383" stroke="#263238" stroke-width="1.0816" stroke-miterlimit="10" stroke-linecap="round" stroke-linejoin="round"/>
<path d="M385.774 396.182C385.774 396.182 386.75 389.944 394.548 389.748" stroke="#263238" stroke-width="1.0816" stroke-miterlimit="10" stroke-linecap="round" stroke-linejoin="round"/>
<path d="M390.648 397.937C390.648 397.937 391.623 391.699 399.422 391.503" stroke="#263238" stroke-width="1.0816" stroke-miterlimit="10" stroke-linecap="round" stroke-linejoin="round"/>
<path d="M397.657 400.03C397.484 400.03 397.307 400 397.136 399.935C396.926 399.857 395.844 399.403 395.052 398.164C394.356 397.074 393.762 395.144 394.887 392.142C395.742 389.864 397.494 388.266 399.82 387.644C402.589 386.906 405.87 387.655 408.179 389.558C408.822 390.086 408.914 391.04 408.383 391.682C407.856 392.325 406.905 392.417 406.259 391.887C404.7 390.606 402.424 390.071 400.602 390.56C399.64 390.818 398.361 391.484 397.716 393.202C396.585 396.216 397.947 396.994 398.231 397.119C398.979 397.448 399.35 398.322 399.043 399.079C398.805 399.667 398.251 400.03 397.657 400.03Z" fill="white" stroke="#263238" stroke-width="1.0816" stroke-miterlimit="10" stroke-linecap="round" stroke-linejoin="round"/>
</svg>
