<svg width="1440" height="768" viewBox="0 0 1440 768" fill="none" xmlns="http://www.w3.org/2000/svg">
<path d="M-73.3494 777.874C-52.3049 684.498 39.1943 491.116 236.835 464.596C483.885 431.446 662.486 612.603 938.934 555.776C1160.09 510.315 1345.76 167.923 1410.94 2.40889M-136.448 452.135C-99.5783 522.986 24.4973 654.662 225.842 614.557C477.523 564.425 812.853 97.3608 1134.92 135.056C1392.57 165.212 1611.58 206.899 1688.88 223.973M-131.811 635.839C-118.24 523.511 -31.0889 288.491 208.945 247.04C508.987 195.227 733.504 399.771 1057.59 336.576C1316.86 286.021 1487.74 133.341 1540.77 63.3206" stroke="white" stroke-opacity="0.8" stroke-width="3" stroke-linecap="round"/>
</svg>
