<svg width="514" height="514" viewBox="0 0 514 514" fill="none" xmlns="http://www.w3.org/2000/svg">
<path d="M504.41 231.052C391.753 158.329 289.08 228.845 255.136 278.027C248.62 290.218 251.247 301.778 260.6 308.714C376.62 381.121 479.399 310.185 509.875 261.633C513.133 256.168 517.862 241.246 504.41 231.052ZM305.474 284.648C336.686 255.538 393.225 225.062 459.642 255.118C434.525 281.39 380.824 313.863 305.474 284.648Z" fill="#7D7D7D" fill-opacity="0.22"/>
<path d="M398.476 386.481C285.819 313.758 183.146 384.274 149.202 433.456C142.581 445.542 145.208 457.207 154.666 464.037C270.686 536.55 373.36 465.614 403.941 417.062C407.199 411.597 411.928 396.674 398.476 386.481ZM199.435 439.972C230.647 410.967 287.186 380.49 353.603 410.441C328.486 436.714 274.785 469.187 199.435 439.972Z" fill="#7D7D7D" fill-opacity="0.22"/>
<path d="M91.2973 422.842C103.383 429.463 115.048 426.835 121.879 417.377C194.391 301.357 123.455 198.684 74.9032 168.102C69.4385 164.845 54.5156 160.116 44.3218 173.567C-28.4008 286.224 42.1149 388.898 91.2973 422.842ZM68.3876 218.441C94.6602 243.557 127.133 297.259 97.918 372.609C68.8079 341.397 38.3317 284.858 68.3876 218.441Z" fill="#7D7D7D" fill-opacity="0.22"/>
<path d="M197.332 267.623C209.418 274.139 221.083 271.617 227.914 262.159C300.426 146.139 229.49 43.4651 180.938 12.8837C175.474 9.62591 160.551 4.89683 150.357 18.3484C77.6343 131.006 148.15 233.679 197.332 267.623ZM174.423 63.2221C200.695 88.3387 233.168 142.04 203.953 217.39C174.843 186.178 144.367 129.639 174.423 63.2221Z" fill="#7D7D7D" fill-opacity="0.22"/>
<path d="M314.089 190.592C434.943 158.855 439.883 56.0759 432.211 17.823C430.004 5.84264 419.075 -1.82897 407.094 0.377928C366.109 4.89682 271.843 57.1268 289.078 173.147C292.651 185.442 300.638 191.748 314.089 190.592ZM391.856 49.5603C390.7 69.2123 383.134 113.666 329.537 140.253C332.48 85.2911 374.411 57.2319 391.856 49.5603Z" fill="#7D7D7D" fill-opacity="0.22"/>
<path d="M128.394 428.937C117.465 423.473 104.329 427.781 98.864 437.66C96.6571 443.124 71.5404 484.74 32.1315 463.932C21.202 458.468 8.06572 461.726 2.60101 472.655C-2.8637 483.584 0.394107 496.721 11.3235 502.185C78.1611 538.231 123.981 482.533 137.117 458.468C142.582 447.538 138.273 434.402 128.394 428.937Z" fill="#7D7D7D" fill-opacity="0.22"/>
</svg>
